<svg width="24" height="34" viewBox="0 0 24 34" fill="none" xmlns="http://www.w3.org/2000/svg">
<path d="M1.8579 18.9407C1.8313 18.9627 1.8313 19.0034 1.8579 19.0254L19.1788 33.3258C20.2675 34.2247 21.841 34.2247 22.9297 33.3258C24.3568 32.1476 24.3568 29.9609 22.9297 28.7827L12.3796 20.0723C10.4418 18.4724 10.4418 15.503 12.3796 13.9032L22.7053 5.3781C24.1323 4.1999 24.1323 2.0131 22.7053 0.834904C21.6166 -0.0639963 20.0431 -0.0639963 18.9544 0.834904L0.700806 15.9054C0.0741057 16.4229 0.0741057 17.3833 0.700806 17.9007L1.8579 18.856C1.8845 18.878 1.8845 18.9187 1.8579 18.9407Z" fill="white"/>
</svg>
