<svg width="50" height="50" viewBox="0 0 50 50" fill="none" xmlns="http://www.w3.org/2000/svg">
<g clip-path="url(#clip0_115_2)">
<path fill-rule="evenodd" clip-rule="evenodd" d="M25.5 6.99993L35.9992 20.7755L38.4 15.0326C40.3495 17.6841 41.5 20.9567 41.5 24.4999C41.5 33.3365 34.3366 40.4999 25.5 40.4999C16.6634 40.4999 9.5 33.3365 9.5 24.4999H6.5C6.5 34.9933 15.0066 43.4999 25.5 43.4999C35.9934 43.4999 44.5 34.9933 44.5 24.4999C44.5 19.662 42.6901 15.2443 39.7133 11.8909L42.6796 4.79517L25.5 6.99993ZM17.6193 32.9999V18.4545H15.858L12.2216 20.8692V22.659L15.7727 20.3011H15.858V32.9999H17.6193ZM24.0966 32.7016C24.7642 33.0331 25.5147 33.1988 26.348 33.1988C27.2713 33.1988 28.0952 32.9905 28.8196 32.5738C29.544 32.1524 30.1122 31.5795 30.5241 30.855C30.9408 30.1259 31.1491 29.2973 31.1491 28.3692C31.1491 27.427 30.9479 26.5889 30.5455 25.855C30.1477 25.1211 29.5985 24.5435 28.8977 24.1221C28.2017 23.696 27.4086 23.4829 26.5185 23.4829C26.0308 23.4829 25.562 23.561 25.1122 23.7173C24.6624 23.8735 24.2884 24.07 23.9901 24.3067H23.9048L24.4162 20.017H30.4957V18.4545H22.9389L22.0582 25.6136L23.706 25.8124C24.009 25.5946 24.3949 25.4171 24.8636 25.2798C25.3324 25.1377 25.7893 25.0691 26.2344 25.0738C26.8546 25.0785 27.4062 25.2253 27.8892 25.5141C28.3722 25.803 28.7509 26.1983 29.0256 26.7002C29.3049 27.1974 29.4446 27.7632 29.4446 28.3977C29.4446 29.0179 29.3097 29.5743 29.0398 30.0667C28.7746 30.5544 28.4077 30.9379 27.9389 31.2173C27.4749 31.4966 26.9446 31.6363 26.348 31.6363C25.6046 31.6363 24.9654 31.4232 24.4304 30.9971C23.9001 30.5662 23.6018 30.0217 23.5355 29.3636H21.831C21.8688 30.1022 22.089 30.7603 22.4915 31.338C22.8939 31.9156 23.429 32.3702 24.0966 32.7016Z" fill="white"/>
</g>
<defs>
<clipPath id="clip0_115_2">
<rect width="50" height="50" fill="white"/>
</clipPath>
</defs>
</svg>
