<svg width="485" height="463" viewBox="0 0 485 463" fill="none" xmlns="http://www.w3.org/2000/svg">
<path d="M204.553 20.4414L467.146 145.599" stroke="black" stroke-width="6"/>
<path d="M12.095 114.84L270.958 239.997" stroke="black" stroke-width="6"/>
<path d="M12.095 160.987L270.958 286.145" stroke="black" stroke-width="6"/>
<path d="M12.2815 115.539L206.172 21.7942" stroke="black" stroke-width="6"/>
<path d="M268.918 239.992L468.34 144.943" stroke="black" stroke-width="6"/>
<path d="M268.918 286.139L466.346 192.041" stroke="black" stroke-width="6"/>
<path d="M14.0533 116.704V163.551" stroke="black" stroke-width="6"/>
<path d="M466.131 146.07V192.917" stroke="black" stroke-width="6"/>
<path d="M270.678 239.065V285.212" stroke="black" stroke-width="6"/>
<path d="M262.958 281.716V404.077" stroke="black" stroke-width="6"/>
<path d="M455.687 199.917L455.179 319.481" stroke="black" stroke-width="6"/>
<path d="M24.4974 166.356L23.9774 288.716" stroke="black" stroke-width="6"/>
<path d="M22.5436 288.245L261.265 404.313" stroke="black" stroke-width="6"/>
<path d="M455.159 319.269L261.09 406.106" stroke="black" stroke-width="6"/>
<path d="M75.2607 253.499L66.3019 249.475C66.6227 248.56 66.7756 247.671 66.7607 246.811C66.7451 245.95 66.5585 245.137 66.2012 244.371C65.8439 243.605 65.3127 242.905 64.6085 242.272C63.9214 241.633 63.0769 241.088 62.0736 240.638C60.2936 239.839 58.5494 239.558 56.8418 239.795C55.1454 240.039 53.5564 240.777 52.0734 242.011C50.603 243.25 49.3065 244.967 48.1845 247.161C47.017 249.446 46.3844 251.515 46.2874 253.372C46.2076 255.222 46.6007 256.824 47.4661 258.176C48.3493 259.523 49.663 260.588 51.4072 261.371C52.3867 261.811 53.3364 262.093 54.2569 262.217C55.1894 262.347 56.075 262.324 56.9135 262.15C57.7691 261.97 58.5599 261.644 59.2865 261.171C60.0303 260.694 60.6912 260.075 61.2701 259.316L70.2035 263.391C69.2695 264.844 68.0312 266.132 66.4869 267.255C64.9546 268.384 63.1963 269.254 61.2104 269.863C59.2306 270.46 57.0776 270.677 54.7523 270.514C52.4389 270.356 50.0219 269.711 47.5019 268.579C44.1807 267.087 41.5555 265.068 39.6263 262.522C37.7143 259.97 36.6721 257.038 36.5006 253.726C36.3282 250.413 37.207 246.871 39.1362 243.098C41.0706 239.314 43.4809 236.452 46.3672 234.513C49.2535 232.574 52.3591 231.512 55.6855 231.326C59.012 231.141 62.3056 231.78 65.5664 233.244C67.7887 234.242 69.694 235.456 71.2837 236.886C72.8794 238.305 74.1103 239.89 74.9772 241.643C75.8493 243.384 76.3245 245.255 76.4021 247.259C76.4789 249.263 76.0984 251.342 75.2607 253.499ZM88.4329 268.294L80.9117 283.006L72.1498 279.07L89.7339 244.677L98.2092 248.484L91.3915 261.818L91.6966 261.955C93.1304 260.644 94.7814 259.857 96.6486 259.595C98.5278 259.337 100.495 259.67 102.549 260.593C104.485 261.462 105.962 262.622 106.984 264.071C108.011 265.51 108.547 267.134 108.591 268.944C108.647 270.758 108.171 272.637 107.164 274.58L98.7575 291.021L89.9957 287.086L97.5774 272.257C98.3219 270.83 98.5121 269.538 98.1481 268.383C97.7833 267.229 96.8963 266.334 95.4871 265.702C94.5672 265.288 93.6579 265.114 92.7582 265.178C91.8764 265.236 91.061 265.524 90.312 266.041C89.575 266.564 88.9484 267.315 88.4329 268.294ZM114.79 298.759C113.034 297.97 111.615 296.995 110.534 295.835C109.47 294.669 108.83 293.349 108.614 291.876C108.416 290.396 108.752 288.805 109.622 287.104C110.355 285.671 111.242 284.582 112.283 283.838C113.324 283.094 114.474 282.627 115.732 282.435C116.991 282.243 118.316 282.266 119.706 282.506C121.103 282.734 122.528 283.106 123.983 283.621C125.617 284.189 126.948 284.615 127.978 284.899C129.014 285.172 129.818 285.265 130.392 285.178C130.983 285.085 131.412 284.776 131.681 284.249L131.724 284.166C132.165 283.303 132.189 282.495 131.797 281.741C131.403 280.986 130.67 280.367 129.594 279.884C128.436 279.364 127.384 279.181 126.439 279.334C125.494 279.488 124.714 279.936 124.099 280.679L116.156 276.781C117.196 275.321 118.527 274.198 120.148 273.411C121.787 272.619 123.658 272.262 125.763 272.34C127.885 272.412 130.176 273.001 132.637 274.106C134.393 274.895 135.912 275.818 137.192 276.875C138.479 277.92 139.483 279.06 140.204 280.292C140.931 281.513 141.321 282.79 141.375 284.122C141.44 285.459 141.123 286.811 140.425 288.177L131.462 305.709L123.219 302.007L125.056 298.413L124.842 298.317C123.905 298.971 122.9 299.428 121.827 299.689C120.765 299.956 119.643 300.009 118.462 299.85C117.292 299.696 116.068 299.333 114.79 298.759ZM120.242 294.6C121.186 295.023 122.126 295.225 123.062 295.205C124.01 295.19 124.871 294.971 125.645 294.548C126.425 294.114 127.03 293.477 127.459 292.637L128.713 290.185C128.399 290.195 128.037 290.17 127.627 290.11C127.23 290.056 126.798 289.979 126.334 289.881C125.87 289.783 125.4 289.668 124.924 289.537C124.448 289.405 123.993 289.277 123.558 289.15C122.671 288.903 121.869 288.777 121.151 288.771C120.446 288.771 119.833 288.909 119.311 289.184C118.806 289.452 118.41 289.867 118.124 290.426C117.689 291.277 117.679 292.071 118.095 292.809C118.524 293.552 119.239 294.149 120.242 294.6ZM168.569 290.657L165.478 296.703L148.115 288.905L151.207 282.859L168.569 290.657ZM158.004 278.312L166.765 282.248L154.565 306.112C154.307 306.616 154.182 307.062 154.189 307.45C154.213 307.833 154.359 308.166 154.624 308.451C154.896 308.724 155.264 308.966 155.731 309.175C156.065 309.326 156.432 309.456 156.83 309.566C157.247 309.67 157.562 309.743 157.776 309.784L156.072 316.308C155.596 316.233 154.933 316.107 154.083 315.931C153.244 315.761 152.289 315.463 151.214 315.035C149.114 314.202 147.466 313.187 146.272 311.99C145.095 310.786 144.413 309.434 144.226 307.932C144.051 306.435 144.423 304.819 145.34 303.083L158.004 278.312ZM191.601 301.002L188.511 307.047L171.148 299.249L174.239 293.203L191.601 301.002ZM181.036 288.657L189.798 292.592L177.597 316.456C177.339 316.96 177.214 317.406 177.221 317.795C177.246 318.178 177.391 318.511 177.657 318.796C177.929 319.069 178.297 319.31 178.763 319.519C179.098 319.67 179.464 319.801 179.863 319.91C180.279 320.015 180.595 320.088 180.809 320.129L179.104 326.653C178.628 326.577 177.966 326.451 177.116 326.276C176.277 326.106 175.321 325.807 174.246 325.38C172.146 324.547 170.499 323.532 169.304 322.334C168.128 321.131 167.446 319.778 167.259 318.276C167.084 316.78 167.455 315.164 168.372 313.428L181.036 288.657ZM198.232 336.296C195.353 335.003 193.14 333.356 191.593 331.354C190.065 329.345 189.245 327.098 189.135 324.612C189.043 322.121 189.698 319.503 191.101 316.76C192.463 314.095 194.215 312.018 196.357 310.53C198.504 309.031 200.883 308.185 203.492 307.994C206.107 307.792 208.801 308.313 211.572 309.558C213.531 310.437 215.177 311.528 216.509 312.829C217.841 314.129 218.813 315.605 219.423 317.255C220.033 318.906 220.246 320.702 220.061 322.643C219.883 324.573 219.253 326.595 218.171 328.711L217.124 330.76L193.203 320.017L195.642 315.247L211.409 322.329C211.844 321.451 212.021 320.573 211.94 319.697C211.859 318.821 211.54 318.024 210.982 317.305C210.442 316.581 209.688 316.001 208.72 315.566C207.74 315.126 206.756 314.939 205.768 315.005C204.786 315.059 203.887 315.337 203.073 315.839C202.264 316.329 201.622 317.011 201.146 317.885L198.664 322.738C198.126 323.79 197.875 324.813 197.91 325.807C197.951 326.789 198.267 327.681 198.856 328.482C199.445 329.284 200.301 329.936 201.424 330.441C202.2 330.789 202.956 331.005 203.693 331.088C204.429 331.171 205.123 331.119 205.778 330.93C206.433 330.742 207.019 330.414 207.538 329.945L215.471 333.776C214.272 335.317 212.785 336.459 211.009 337.203C209.251 337.941 207.281 338.248 205.098 338.121C202.921 337.983 200.633 337.375 198.232 336.296ZM219.045 345.045L232.233 319.25L240.744 323.073L238.34 327.775L238.626 327.904C239.998 326.428 241.464 325.53 243.022 325.211C244.586 324.881 246.12 325.054 247.626 325.73C248.031 325.912 248.436 326.128 248.837 326.377C249.244 326.615 249.607 326.867 249.925 327.134L246.277 334.272C245.927 333.95 245.432 333.597 244.791 333.213C244.163 332.834 243.585 332.526 243.06 332.29C242.021 331.823 240.971 331.621 239.912 331.682C238.87 331.737 237.913 332.044 237.04 332.602C236.185 333.154 235.494 333.945 234.967 334.975L227.806 348.98L219.045 345.045Z" fill="black"/>
<path d="M316.401 341.798L299.949 306.916L315.469 300.486C318.255 299.331 320.761 298.734 322.988 298.694C325.226 298.649 327.13 299.095 328.702 300.032C330.285 300.964 331.49 302.304 332.314 304.053C332.941 305.381 333.203 306.691 333.103 307.982C332.997 309.261 332.583 310.457 331.862 311.57C331.142 312.683 330.161 313.659 328.921 314.499L329.082 314.84C330.616 314.285 332.182 314.091 333.781 314.257C335.392 314.417 336.877 314.956 338.236 315.872C339.59 316.777 340.663 318.07 341.456 319.751C342.339 321.624 342.62 323.51 342.299 325.407C341.972 327.294 341.046 329.062 339.522 330.712C337.992 332.351 335.852 333.739 333.102 334.879L316.401 341.798ZM322.192 331.275L327.752 328.971C329.702 328.163 330.975 327.222 331.569 326.148C332.175 325.068 332.187 323.91 331.602 322.672C331.179 321.775 330.591 321.096 329.837 320.635C329.079 320.162 328.204 319.92 327.214 319.91C326.219 319.887 325.146 320.114 323.995 320.591L318.271 322.963L322.192 331.275ZM315.709 317.529L320.688 315.467C321.669 315.061 322.469 314.545 323.088 313.923C323.707 313.3 324.091 312.611 324.242 311.856C324.405 311.097 324.294 310.308 323.908 309.491C323.357 308.321 322.481 307.584 321.281 307.281C320.08 306.977 318.729 307.136 317.226 307.759L312.102 309.882L315.709 317.529ZM367.74 321.118C364.808 322.332 362.023 322.815 359.385 322.564C356.754 322.297 354.392 321.388 352.3 319.839C350.214 318.273 348.54 316.151 347.276 313.471C346.007 310.779 345.459 308.19 345.632 305.702C345.812 303.198 346.686 300.949 348.251 298.957C349.824 296.948 352.076 295.336 355.008 294.122C357.939 292.907 360.721 292.433 363.352 292.7C365.991 292.951 368.352 293.859 370.438 295.425C372.53 296.974 374.21 299.094 375.479 301.785C376.743 304.466 377.285 307.058 377.105 309.562C376.932 312.05 376.059 314.298 374.486 316.307C372.921 318.299 370.672 319.903 367.74 321.118ZM364.83 314.81C365.896 314.368 366.654 313.688 367.104 312.769C367.554 311.849 367.716 310.764 367.59 309.514C367.475 308.258 367.08 306.915 366.406 305.484C365.72 304.031 364.92 302.841 364.007 301.917C363.105 300.988 362.14 300.37 361.111 300.063C360.083 299.756 359.036 299.823 357.97 300.265C356.867 300.721 356.08 301.414 355.605 302.344C355.143 303.269 354.969 304.359 355.084 305.614C355.21 306.865 355.616 308.217 356.302 309.67C356.976 311.101 357.765 312.281 358.667 313.211C359.581 314.135 360.558 314.748 361.598 315.05C362.65 315.347 363.728 315.267 364.83 314.81ZM384.476 282.32L393.139 289.033L393.835 278.442L402.794 274.73L401.167 291.041L415.423 300.771L406.537 304.453L397.316 297.89L396.415 308.647L387.402 312.381L389.337 295.942L375.463 286.054L384.476 282.32Z" fill="black"/>
<path d="M16.7703 442.533V418.125H23.065V437.743H33.8985V442.533H16.7703ZM41.454 442.533V424.227H47.672V442.533H41.454ZM44.5693 422.094C43.6965 422.094 42.946 421.824 42.3187 421.283C41.6913 420.735 41.3779 420.076 41.3779 419.305C41.3779 418.542 41.6913 417.891 42.3187 417.35C42.946 416.802 43.6965 416.528 44.5693 416.528C45.4511 416.528 46.2016 416.802 46.82 417.35C47.4474 417.891 47.7615 418.542 47.7615 419.305C47.7615 420.076 47.4474 420.735 46.82 421.283C46.2016 421.824 45.4511 422.094 44.5693 422.094ZM72.9794 429.816L67.2695 429.96C67.2105 429.579 67.0494 429.241 66.7868 428.947C66.5235 428.644 66.1803 428.41 65.7566 428.243C65.3411 428.068 64.8577 427.982 64.3071 427.982C63.5865 427.982 62.9718 428.117 62.463 428.386C61.9632 428.656 61.717 429.022 61.7259 429.483C61.717 429.841 61.8699 430.151 62.1832 430.413C62.5055 430.675 63.0777 430.885 63.8998 431.044L67.6641 431.712C69.6134 432.062 71.0637 432.641 72.0126 433.452C72.9704 434.262 73.4538 435.335 73.462 436.67C73.4538 437.925 73.0555 439.018 72.267 439.947C71.4874 440.877 70.4191 441.6 69.0629 442.116C67.7067 442.625 66.155 442.879 64.4086 442.879C61.6193 442.879 59.42 442.343 57.8094 441.27C56.207 440.19 55.2916 438.744 55.0626 436.932L61.2045 436.789C61.3395 437.457 61.6916 437.965 62.2593 438.314C62.8278 438.664 63.5521 438.839 64.4339 438.839C65.2307 438.839 65.8797 438.7 66.3795 438.421C66.8801 438.144 67.1345 437.774 67.1427 437.313C67.1345 436.9 66.939 436.571 66.5578 436.324C66.1759 436.07 65.5783 435.871 64.7644 435.728L61.3567 435.121C59.3984 434.786 57.9407 434.171 56.9828 433.273C56.0242 432.367 55.5498 431.215 55.558 429.816C55.5498 428.593 55.8974 427.548 56.6009 426.683C57.3044 425.809 58.3048 425.141 59.6021 424.68C60.8994 424.219 62.4294 423.988 64.1922 423.988C66.8375 423.988 68.9226 424.509 70.4489 425.55C71.9745 426.583 72.8183 428.005 72.9794 429.816ZM91.8458 424.227V428.518H79.5241V424.227H91.8458ZM82.1052 419.841H88.3232V436.777C88.3232 437.134 88.3829 437.424 88.5015 437.647C88.6283 437.861 88.8103 438.017 89.0483 438.112C89.2855 438.199 89.569 438.243 89.9002 438.243C90.1375 438.243 90.3874 438.223 90.65 438.183C90.9215 438.136 91.1252 438.096 91.2602 438.064L92.2017 442.271C91.9048 442.351 91.4855 442.45 90.9424 442.569C90.4083 442.689 89.7682 442.764 89.0222 442.796C87.5645 442.859 86.3142 442.701 85.2713 442.319C84.2373 441.929 83.4443 441.326 82.8938 440.507C82.3507 439.689 82.0881 438.66 82.1052 437.421V419.841ZM108.236 442.879C106.192 442.879 104.429 442.502 102.946 441.747C101.471 440.984 100.335 439.9 99.5379 438.493C98.7493 437.079 98.3547 435.398 98.3547 433.452C98.3547 431.561 98.7538 429.908 99.5505 428.493C100.347 427.071 101.471 425.967 102.92 425.181C104.37 424.386 106.078 423.988 108.045 423.988C109.435 423.988 110.706 424.191 111.86 424.597C113.012 425.002 114.008 425.602 114.847 426.396C115.687 427.191 116.339 428.172 116.806 429.34C117.272 430.5 117.505 431.831 117.505 433.333V434.786H100.529V431.402H111.719C111.711 430.782 111.554 430.23 111.249 429.745C110.944 429.26 110.524 428.883 109.99 428.613C109.465 428.335 108.858 428.196 108.172 428.196C107.477 428.196 106.854 428.343 106.303 428.637C105.751 428.923 105.315 429.316 104.993 429.816C104.67 430.309 104.501 430.869 104.484 431.497V434.942C104.484 435.688 104.641 436.344 104.955 436.908C105.269 437.464 105.713 437.897 106.29 438.207C106.867 438.517 107.553 438.672 108.35 438.672C108.901 438.672 109.401 438.6 109.851 438.457C110.3 438.314 110.685 438.104 111.008 437.826C111.33 437.547 111.571 437.206 111.732 436.801L117.442 436.956C117.205 438.156 116.683 439.2 115.878 440.09C115.081 440.972 114.034 441.66 112.737 442.152C111.44 442.637 109.939 442.879 108.236 442.879ZM131.196 432.093V442.533H124.978V424.227H130.891V427.588H131.107C131.54 426.468 132.277 425.59 133.32 424.954C134.363 424.311 135.604 423.988 137.045 423.988C138.419 423.988 139.61 424.279 140.619 424.859C141.636 425.431 142.424 426.233 142.984 427.266C143.552 428.291 143.832 429.491 143.823 430.865V442.533H137.605V432.01C137.614 430.992 137.338 430.198 136.778 429.626C136.228 429.054 135.46 428.768 134.477 428.768C133.824 428.768 133.248 428.903 132.748 429.173C132.256 429.435 131.874 429.813 131.603 430.305C131.34 430.798 131.205 431.394 131.196 432.093ZM173.077 442.879C171.026 442.879 169.262 442.486 167.788 441.699C166.321 440.904 165.189 439.8 164.392 438.386C163.604 436.964 163.21 435.315 163.21 433.44C163.21 431.557 163.604 429.908 164.392 428.493C165.189 427.071 166.321 425.967 167.788 425.181C169.262 424.386 171.026 423.988 173.077 423.988C175.129 423.988 176.888 424.386 178.355 425.181C179.829 425.967 180.961 427.071 181.75 428.493C182.546 429.908 182.945 431.557 182.945 433.44C182.945 435.315 182.546 436.964 181.75 438.386C180.961 439.8 179.829 440.904 178.355 441.699C176.888 442.486 175.129 442.879 173.077 442.879ZM173.115 438.482C173.861 438.482 174.493 438.267 175.01 437.838C175.527 437.408 175.922 436.813 176.193 436.05C176.472 435.287 176.613 434.405 176.613 433.404C176.613 432.387 176.472 431.497 176.193 430.734C175.922 429.972 175.527 429.376 175.01 428.947C174.493 428.518 173.861 428.303 173.115 428.303C172.344 428.303 171.691 428.518 171.157 428.947C170.632 429.376 170.229 429.972 169.949 430.734C169.678 431.497 169.542 432.387 169.542 433.404C169.542 434.405 169.678 435.287 169.949 436.05C170.229 436.813 170.632 437.408 171.157 437.838C171.691 438.267 172.344 438.482 173.115 438.482ZM203.029 434.632V424.227H209.234V442.533H203.308V439.125H203.105C202.673 440.245 201.935 441.135 200.893 441.794C199.858 442.446 198.608 442.772 197.141 442.772C195.81 442.772 194.641 442.486 193.632 441.914C192.623 441.341 191.839 440.543 191.279 439.519C190.72 438.485 190.436 437.278 190.427 435.895V424.227H196.645V434.751C196.654 435.744 196.934 436.527 197.484 437.099C198.036 437.671 198.786 437.957 199.735 437.957C200.354 437.957 200.909 437.83 201.401 437.575C201.902 437.313 202.295 436.936 202.584 436.443C202.88 435.943 203.029 435.339 203.029 434.632ZM228.514 424.227V428.518H216.192V424.227H228.514ZM218.773 419.841H224.992V436.777C224.992 437.134 225.051 437.424 225.169 437.647C225.297 437.861 225.479 438.017 225.716 438.112C225.953 438.199 226.238 438.243 226.568 438.243C226.805 438.243 227.056 438.223 227.319 438.183C227.59 438.136 227.793 438.096 227.929 438.064L228.87 442.271C228.573 442.351 228.153 442.45 227.611 442.569C227.077 442.689 226.437 442.764 225.691 442.796C224.233 442.859 222.982 442.701 221.94 442.319C220.905 441.929 220.113 441.326 219.562 440.507C219.019 439.689 218.757 438.66 218.773 437.421V419.841ZM257.091 442.879C255.039 442.879 253.277 442.486 251.801 441.699C250.334 440.904 249.203 439.8 248.406 438.386C247.617 436.964 247.223 435.315 247.223 433.44C247.223 431.557 247.617 429.908 248.406 428.493C249.203 427.071 250.334 425.967 251.801 425.181C253.277 424.386 255.039 423.988 257.091 423.988C259.142 423.988 260.901 424.386 262.368 425.181C263.843 425.967 264.975 427.071 265.763 428.493C266.56 429.908 266.958 431.557 266.958 433.44C266.958 435.315 266.56 436.964 265.763 438.386C264.975 439.8 263.843 440.904 262.368 441.699C260.901 442.486 259.142 442.879 257.091 442.879ZM257.129 438.482C257.875 438.482 258.507 438.267 259.024 437.838C259.541 437.408 259.935 436.813 260.206 436.05C260.486 435.287 260.626 434.405 260.626 433.404C260.626 432.387 260.486 431.497 260.206 430.734C259.935 429.972 259.541 429.376 259.024 428.947C258.507 428.518 257.875 428.303 257.129 428.303C256.357 428.303 255.705 428.518 255.171 428.947C254.645 429.376 254.243 429.972 253.963 430.734C253.691 431.497 253.556 432.387 253.556 433.404C253.556 434.405 253.691 435.287 253.963 436.05C254.243 436.813 254.645 437.408 255.171 437.838C255.705 438.267 256.357 438.482 257.129 438.482ZM285.542 424.227V428.518H272.978V424.227H285.542ZM275.598 442.533V423.298C275.598 421.883 275.882 420.711 276.45 419.781C277.018 418.844 277.807 418.145 278.815 417.684C279.824 417.215 280.99 416.981 282.312 416.981C283.177 416.981 283.99 417.044 284.753 417.171C285.525 417.291 286.097 417.398 286.47 417.494L285.479 421.76C285.249 421.688 284.97 421.629 284.639 421.581C284.317 421.534 284.012 421.51 283.723 421.51C282.994 421.51 282.494 421.661 282.223 421.963C281.951 422.264 281.816 422.677 281.816 423.202V442.533H275.598ZM315.845 424.227V428.518H303.524V424.227H315.845ZM306.105 419.841H312.323V436.777C312.323 437.134 312.382 437.424 312.501 437.647C312.628 437.861 312.811 438.017 313.048 438.112C313.285 438.199 313.569 438.243 313.9 438.243C314.137 438.243 314.387 438.223 314.65 438.183C314.921 438.136 315.125 438.096 315.26 438.064L316.201 442.271C315.904 442.351 315.485 442.45 314.943 442.569C314.409 442.689 313.768 442.764 313.022 442.796C311.564 442.859 310.314 442.701 309.271 442.319C308.237 441.929 307.444 441.326 306.893 440.507C306.351 439.689 306.088 438.66 306.105 437.421V419.841ZM329.952 432.093V442.533H323.734V418.125H329.749V427.588H329.965C330.406 426.459 331.126 425.578 332.127 424.942C333.135 424.307 334.369 423.988 335.827 423.988C337.2 423.988 338.396 424.274 339.413 424.847C340.431 425.411 341.219 426.209 341.779 427.243C342.346 428.275 342.626 429.483 342.618 430.865V442.533H336.399V432.01C336.408 430.992 336.137 430.198 335.586 429.626C335.035 429.054 334.259 428.768 333.259 428.768C332.606 428.768 332.029 428.903 331.529 429.173C331.038 429.435 330.652 429.813 330.372 430.305C330.101 430.798 329.961 431.394 329.952 432.093ZM359.926 442.879C357.883 442.879 356.12 442.502 354.637 441.747C353.161 440.984 352.026 439.9 351.228 438.493C350.44 437.079 350.046 435.398 350.046 433.452C350.046 431.561 350.444 429.908 351.241 428.493C352.038 427.071 353.161 425.967 354.611 425.181C356.061 424.386 357.769 423.988 359.736 423.988C361.126 423.988 362.397 424.191 363.55 424.597C364.703 425.002 365.699 425.602 366.539 426.396C367.378 427.191 368.031 428.172 368.497 429.34C368.963 430.5 369.197 431.831 369.197 433.333V434.786H352.22V431.402H363.411C363.402 430.782 363.245 430.23 362.94 429.745C362.635 429.26 362.215 428.883 361.681 428.613C361.155 428.335 360.55 428.196 359.863 428.196C359.167 428.196 358.544 428.343 357.994 428.637C357.442 428.923 357.006 429.316 356.684 429.816C356.362 430.309 356.192 430.869 356.175 431.497V434.942C356.175 435.688 356.332 436.344 356.646 436.908C356.959 437.464 357.404 437.897 357.98 438.207C358.557 438.517 359.244 438.672 360.041 438.672C360.591 438.672 361.092 438.6 361.541 438.457C361.99 438.314 362.377 438.104 362.698 437.826C363.02 437.547 363.262 437.206 363.423 436.801L369.132 436.956C368.895 438.156 368.374 439.2 367.569 440.09C366.772 440.972 365.725 441.66 364.428 442.152C363.131 442.637 361.631 442.879 359.926 442.879ZM388.659 442.533V418.125H394.877V427.361H395.005C395.259 426.806 395.619 426.269 396.085 425.753C396.56 425.236 397.162 424.815 397.891 424.489C398.629 424.156 399.51 423.988 400.536 423.988C401.892 423.988 403.16 424.323 404.338 424.99C405.525 425.657 406.482 426.686 407.211 428.077C407.941 429.467 408.305 431.239 408.305 433.392C408.305 435.466 407.954 437.202 407.25 438.6C406.555 439.999 405.613 441.048 404.427 441.747C403.249 442.446 401.939 442.796 400.497 442.796C399.514 442.796 398.662 442.645 397.942 442.343C397.221 442.041 396.615 441.643 396.124 441.151C395.64 440.658 395.267 440.13 395.005 439.566H394.814V442.533H388.659ZM394.75 433.38C394.75 434.365 394.89 435.223 395.169 435.955C395.458 436.685 395.869 437.254 396.403 437.659C396.946 438.056 397.594 438.255 398.349 438.255C399.112 438.255 399.76 438.056 400.294 437.659C400.829 437.254 401.231 436.685 401.502 435.955C401.782 435.223 401.922 434.365 401.922 433.38C401.922 432.395 401.782 431.541 401.502 430.818C401.231 430.095 400.829 429.535 400.294 429.137C399.768 428.74 399.12 428.542 398.349 428.542C397.586 428.542 396.937 428.736 396.403 429.126C395.869 429.515 395.458 430.071 395.169 430.794C394.89 431.517 394.75 432.379 394.75 433.38ZM424.978 442.879C422.927 442.879 421.163 442.486 419.688 441.699C418.222 440.904 417.09 439.8 416.293 438.386C415.505 436.964 415.111 435.315 415.111 433.44C415.111 431.557 415.505 429.908 416.293 428.493C417.09 427.071 418.222 425.967 419.688 425.181C421.163 424.386 422.927 423.988 424.978 423.988C427.03 423.988 428.789 424.386 430.255 425.181C431.73 425.967 432.862 427.071 433.65 428.493C434.447 429.908 434.846 431.557 434.846 433.44C434.846 435.315 434.447 436.964 433.65 438.386C432.862 439.8 431.73 440.904 430.255 441.699C428.789 442.486 427.03 442.879 424.978 442.879ZM425.016 438.482C425.762 438.482 426.394 438.267 426.911 437.838C427.428 437.408 427.822 436.813 428.094 436.05C428.373 435.287 428.514 434.405 428.514 433.404C428.514 432.387 428.373 431.497 428.094 430.734C427.822 429.972 427.428 429.376 426.911 428.947C426.394 428.518 425.762 428.303 425.016 428.303C424.245 428.303 423.592 428.518 423.058 428.947C422.532 429.376 422.13 429.972 421.85 430.734C421.579 431.497 421.443 432.387 421.443 433.404C421.443 434.405 421.579 435.287 421.85 436.05C422.13 436.813 422.532 437.408 423.058 437.838C423.592 438.267 424.245 438.482 425.016 438.482ZM446.918 424.227L450.136 430.258L453.467 424.227H459.736L454.281 433.38L459.94 442.533H453.722L450.136 436.455L446.638 442.533H440.332L446.003 433.38L440.611 424.227H446.918Z" fill="black"/>
<path d="M227.996 120.989L208.311 119.649C208.195 117.738 207.79 115.991 207.094 114.411C206.399 112.83 205.424 111.453 204.169 110.28C202.915 109.106 201.39 108.174 199.597 107.483C197.832 106.77 195.847 106.338 193.642 106.188C189.732 105.922 186.289 106.59 183.316 108.193C180.368 109.798 178.002 112.246 176.217 115.537C174.458 118.83 173.391 122.887 173.018 127.708C172.63 132.727 173.065 136.986 174.324 140.484C175.612 143.959 177.579 146.653 180.229 148.564C182.905 150.452 186.16 151.527 189.991 151.788C192.144 151.934 194.119 151.809 195.918 151.412C197.742 151.016 199.362 150.373 200.777 149.48C202.22 148.564 203.429 147.422 204.407 146.054C205.411 144.663 206.154 143.07 206.636 141.272L226.312 142.723C225.712 146.045 224.42 149.271 222.437 152.4C220.479 155.531 217.9 158.336 214.701 160.813C211.503 163.267 207.69 165.133 203.264 166.415C198.864 167.699 193.895 168.152 188.358 167.775C181.061 167.279 174.642 165.333 169.1 161.939C163.587 158.522 159.387 153.81 156.502 147.802C153.616 141.795 152.495 134.646 153.137 126.356C153.781 118.041 156.02 111.109 159.853 105.558C163.687 100.008 168.607 95.9282 174.613 93.3201C180.62 90.7121 187.206 89.6514 194.371 90.1388C199.252 90.4709 203.717 91.4176 207.765 92.9789C211.815 94.5158 215.32 96.6092 218.281 99.2585C221.244 101.884 223.573 105.022 225.269 108.674C226.965 112.325 227.874 116.43 227.996 120.989ZM242.066 170.391L247.919 94.8213L267.407 96.147L265.058 126.479L296.828 128.64L299.178 98.309L318.626 99.6319L312.772 175.202L293.325 173.878L295.677 143.51L263.906 141.349L261.554 171.716L242.066 170.391Z" fill="black"/>
</svg>
