<svg width="514" height="463" viewBox="0 0 514 463" fill="none" xmlns="http://www.w3.org/2000/svg">
<path d="M216.553 20.4414L479.146 145.599" stroke="white" stroke-width="6"/>
<path d="M24.095 114.84L282.958 239.997" stroke="white" stroke-width="6"/>
<path d="M24.095 160.987L282.958 286.145" stroke="white" stroke-width="6"/>
<path d="M24.2815 115.539L218.172 21.7942" stroke="white" stroke-width="6"/>
<path d="M280.918 239.992L480.34 144.943" stroke="white" stroke-width="6"/>
<path d="M280.918 286.139L478.346 192.041" stroke="white" stroke-width="6"/>
<path d="M26.0533 116.704V163.551" stroke="white" stroke-width="6"/>
<path d="M478.131 146.07V192.917" stroke="white" stroke-width="6"/>
<path d="M282.678 239.065V285.212" stroke="white" stroke-width="6"/>
<path d="M274.958 281.716V404.077" stroke="white" stroke-width="6"/>
<path d="M467.687 199.917L467.179 319.481" stroke="#FFFCFC" stroke-width="6"/>
<path d="M36.4974 166.356L35.9774 288.716" stroke="#FFF9F9" stroke-width="6"/>
<path d="M34.5436 288.245L273.265 404.313" stroke="white" stroke-width="6"/>
<path d="M467.159 319.269L273.09 406.106" stroke="#FFFBFB" stroke-width="6"/>
<path d="M87.2607 253.499L78.3019 249.475C78.6227 248.56 78.7756 247.671 78.7607 246.811C78.7451 245.95 78.5585 245.137 78.2012 244.371C77.8439 243.605 77.3127 242.905 76.6085 242.272C75.9214 241.633 75.0769 241.088 74.0736 240.638C72.2936 239.839 70.5494 239.558 68.8418 239.795C67.1454 240.039 65.5564 240.777 64.0734 242.011C62.603 243.25 61.3065 244.967 60.1845 247.161C59.017 249.446 58.3844 251.515 58.2874 253.372C58.2076 255.222 58.6007 256.824 59.4661 258.176C60.3493 259.523 61.663 260.588 63.4072 261.371C64.3867 261.811 65.3364 262.093 66.2569 262.217C67.1894 262.347 68.075 262.324 68.9135 262.15C69.7691 261.97 70.5599 261.644 71.2865 261.171C72.0303 260.694 72.6912 260.075 73.2701 259.316L82.2035 263.391C81.2695 264.844 80.0312 266.132 78.4869 267.255C76.9546 268.384 75.1963 269.254 73.2104 269.863C71.2306 270.46 69.0776 270.677 66.7523 270.514C64.4389 270.356 62.0219 269.711 59.5019 268.579C56.1807 267.087 53.5555 265.068 51.6263 262.522C49.7143 259.97 48.6721 257.038 48.5006 253.726C48.3282 250.413 49.207 246.871 51.1362 243.098C53.0706 239.314 55.4809 236.452 58.3672 234.513C61.2535 232.574 64.3591 231.512 67.6855 231.326C71.012 231.141 74.3056 231.78 77.5664 233.244C79.7887 234.242 81.694 235.456 83.2837 236.886C84.8794 238.305 86.1103 239.89 86.9772 241.643C87.8493 243.384 88.3245 245.255 88.4021 247.259C88.4789 249.263 88.0984 251.342 87.2607 253.499ZM100.433 268.294L92.9117 283.006L84.1498 279.07L101.734 244.677L110.209 248.484L103.392 261.818L103.697 261.955C105.13 260.644 106.781 259.857 108.649 259.595C110.528 259.337 112.495 259.67 114.549 260.593C116.485 261.462 117.962 262.622 118.984 264.071C120.011 265.51 120.547 267.134 120.591 268.944C120.647 270.758 120.171 272.637 119.164 274.58L110.758 291.021L101.996 287.086L109.577 272.257C110.322 270.83 110.512 269.538 110.148 268.383C109.783 267.229 108.896 266.334 107.487 265.702C106.567 265.288 105.658 265.114 104.758 265.178C103.876 265.236 103.061 265.524 102.312 266.041C101.575 266.564 100.948 267.315 100.433 268.294ZM126.79 298.759C125.034 297.97 123.615 296.995 122.534 295.835C121.47 294.669 120.83 293.349 120.614 291.876C120.416 290.396 120.752 288.805 121.622 287.104C122.355 285.671 123.242 284.582 124.283 283.838C125.324 283.094 126.474 282.627 127.732 282.435C128.991 282.243 130.316 282.266 131.706 282.506C133.103 282.734 134.528 283.106 135.983 283.621C137.617 284.189 138.948 284.615 139.978 284.899C141.014 285.172 141.818 285.265 142.392 285.178C142.983 285.085 143.412 284.776 143.681 284.249L143.724 284.166C144.165 283.303 144.189 282.495 143.797 281.741C143.403 280.986 142.67 280.367 141.594 279.884C140.436 279.364 139.384 279.181 138.439 279.334C137.494 279.488 136.714 279.936 136.099 280.679L128.156 276.781C129.196 275.321 130.527 274.198 132.148 273.411C133.787 272.619 135.658 272.262 137.763 272.34C139.885 272.412 142.176 273.001 144.637 274.106C146.393 274.895 147.912 275.818 149.192 276.875C150.479 277.92 151.483 279.06 152.204 280.292C152.931 281.513 153.321 282.79 153.375 284.122C153.44 285.459 153.123 286.811 152.425 288.177L143.462 305.709L135.219 302.007L137.056 298.413L136.842 298.317C135.905 298.971 134.9 299.428 133.827 299.689C132.765 299.956 131.643 300.009 130.462 299.85C129.292 299.696 128.068 299.333 126.79 298.759ZM132.242 294.6C133.186 295.023 134.126 295.225 135.062 295.205C136.01 295.19 136.871 294.971 137.645 294.548C138.425 294.114 139.03 293.477 139.459 292.637L140.713 290.185C140.399 290.195 140.037 290.17 139.627 290.11C139.23 290.056 138.798 289.979 138.334 289.881C137.87 289.783 137.4 289.668 136.924 289.537C136.448 289.405 135.993 289.277 135.558 289.15C134.671 288.903 133.869 288.777 133.151 288.771C132.446 288.771 131.833 288.909 131.311 289.184C130.806 289.452 130.41 289.867 130.124 290.426C129.689 291.277 129.679 292.071 130.095 292.809C130.524 293.552 131.239 294.149 132.242 294.6ZM180.569 290.657L177.478 296.703L160.115 288.905L163.207 282.859L180.569 290.657ZM170.004 278.312L178.765 282.248L166.565 306.112C166.307 306.616 166.182 307.062 166.189 307.45C166.213 307.833 166.359 308.166 166.624 308.451C166.896 308.724 167.264 308.966 167.731 309.175C168.065 309.326 168.432 309.456 168.83 309.566C169.247 309.67 169.562 309.743 169.776 309.784L168.072 316.308C167.596 316.233 166.933 316.107 166.083 315.931C165.244 315.761 164.289 315.463 163.214 315.035C161.114 314.202 159.466 313.187 158.272 311.99C157.095 310.786 156.413 309.434 156.226 307.932C156.051 306.435 156.423 304.819 157.34 303.083L170.004 278.312ZM203.601 301.002L200.511 307.047L183.148 299.249L186.239 293.203L203.601 301.002ZM193.036 288.657L201.798 292.592L189.597 316.456C189.339 316.96 189.214 317.406 189.221 317.795C189.246 318.178 189.391 318.511 189.657 318.796C189.929 319.069 190.297 319.31 190.763 319.519C191.098 319.67 191.464 319.801 191.863 319.91C192.279 320.015 192.595 320.088 192.809 320.129L191.104 326.653C190.628 326.577 189.966 326.451 189.116 326.276C188.277 326.106 187.321 325.807 186.246 325.38C184.146 324.547 182.499 323.532 181.304 322.334C180.128 321.131 179.446 319.778 179.259 318.276C179.084 316.78 179.455 315.164 180.372 313.428L193.036 288.657ZM210.232 336.296C207.353 335.003 205.14 333.356 203.593 331.354C202.065 329.345 201.245 327.098 201.135 324.612C201.043 322.121 201.698 319.503 203.101 316.76C204.463 314.095 206.215 312.018 208.357 310.53C210.504 309.031 212.883 308.185 215.492 307.994C218.107 307.792 220.801 308.313 223.572 309.558C225.531 310.437 227.177 311.528 228.509 312.829C229.841 314.129 230.813 315.605 231.423 317.255C232.033 318.906 232.246 320.702 232.061 322.643C231.883 324.573 231.253 326.595 230.171 328.711L229.124 330.76L205.203 320.017L207.642 315.247L223.409 322.329C223.844 321.451 224.021 320.573 223.94 319.697C223.859 318.821 223.54 318.024 222.982 317.305C222.442 316.581 221.688 316.001 220.72 315.566C219.74 315.126 218.756 314.939 217.768 315.005C216.786 315.059 215.887 315.337 215.073 315.839C214.264 316.329 213.622 317.011 213.146 317.885L210.664 322.738C210.126 323.79 209.875 324.813 209.91 325.807C209.951 326.789 210.267 327.681 210.856 328.482C211.445 329.284 212.301 329.936 213.424 330.441C214.2 330.789 214.956 331.005 215.693 331.088C216.429 331.171 217.123 331.119 217.778 330.93C218.433 330.742 219.019 330.414 219.538 329.945L227.471 333.776C226.272 335.317 224.785 336.459 223.009 337.203C221.251 337.941 219.281 338.248 217.098 338.121C214.921 337.983 212.633 337.375 210.232 336.296ZM231.045 345.045L244.233 319.25L252.744 323.073L250.34 327.775L250.626 327.904C251.998 326.428 253.464 325.53 255.022 325.211C256.586 324.881 258.12 325.054 259.626 325.73C260.031 325.912 260.436 326.128 260.837 326.377C261.244 326.615 261.607 326.867 261.925 327.134L258.277 334.272C257.927 333.95 257.432 333.597 256.791 333.213C256.163 332.834 255.585 332.526 255.06 332.29C254.021 331.823 252.971 331.621 251.912 331.682C250.87 331.737 249.913 332.044 249.04 332.602C248.185 333.154 247.494 333.945 246.967 334.975L239.806 348.98L231.045 345.045Z" fill="#FFFDFD"/>
<path d="M328.401 341.798L311.949 306.916L327.469 300.486C330.255 299.331 332.761 298.734 334.988 298.694C337.226 298.649 339.13 299.095 340.702 300.032C342.285 300.964 343.49 302.304 344.314 304.053C344.941 305.381 345.203 306.691 345.103 307.982C344.997 309.261 344.583 310.457 343.862 311.57C343.142 312.683 342.161 313.659 340.921 314.499L341.082 314.84C342.616 314.285 344.182 314.091 345.781 314.257C347.392 314.417 348.877 314.956 350.236 315.872C351.59 316.777 352.663 318.07 353.456 319.751C354.339 321.624 354.62 323.51 354.299 325.407C353.972 327.294 353.046 329.062 351.522 330.712C349.992 332.351 347.852 333.739 345.102 334.879L328.401 341.798ZM334.192 331.275L339.752 328.971C341.702 328.163 342.975 327.222 343.569 326.148C344.175 325.068 344.187 323.91 343.602 322.672C343.179 321.775 342.591 321.096 341.837 320.635C341.079 320.162 340.204 319.92 339.214 319.91C338.219 319.887 337.146 320.114 335.995 320.591L330.271 322.963L334.192 331.275ZM327.709 317.529L332.688 315.467C333.669 315.061 334.469 314.545 335.088 313.923C335.707 313.3 336.091 312.611 336.242 311.856C336.405 311.097 336.294 310.308 335.908 309.491C335.357 308.321 334.481 307.584 333.281 307.281C332.08 306.977 330.729 307.136 329.226 307.759L324.102 309.882L327.709 317.529ZM379.74 321.118C376.808 322.332 374.023 322.815 371.385 322.564C368.754 322.297 366.392 321.388 364.3 319.839C362.214 318.273 360.54 316.151 359.276 313.471C358.007 310.779 357.459 308.19 357.632 305.702C357.812 303.198 358.686 300.949 360.251 298.957C361.824 296.948 364.076 295.336 367.008 294.122C369.939 292.907 372.721 292.433 375.352 292.7C377.991 292.951 380.352 293.859 382.438 295.425C384.53 296.974 386.21 299.094 387.479 301.785C388.743 304.466 389.285 307.058 389.105 309.562C388.932 312.05 388.059 314.298 386.486 316.307C384.921 318.299 382.672 319.903 379.74 321.118ZM376.83 314.81C377.896 314.368 378.654 313.688 379.104 312.769C379.554 311.849 379.716 310.764 379.59 309.514C379.475 308.258 379.08 306.915 378.406 305.484C377.72 304.031 376.92 302.841 376.007 301.917C375.105 300.988 374.14 300.37 373.111 300.063C372.083 299.756 371.036 299.823 369.97 300.265C368.867 300.721 368.08 301.414 367.605 302.344C367.143 303.269 366.969 304.359 367.084 305.614C367.21 306.865 367.616 308.217 368.302 309.67C368.976 311.101 369.765 312.281 370.667 313.211C371.581 314.135 372.558 314.748 373.598 315.05C374.65 315.347 375.728 315.267 376.83 314.81ZM396.476 282.32L405.139 289.033L405.835 278.442L414.794 274.73L413.167 291.041L427.423 300.771L418.537 304.453L409.316 297.89L408.415 308.647L399.402 312.381L401.337 295.942L387.463 286.054L396.476 282.32Z" fill="#FFFCFC"/>
<path d="M28.7703 442.533V418.125H35.065V437.743H45.8985V442.533H28.7703ZM53.454 442.533V424.227H59.672V442.533H53.454ZM56.5693 422.094C55.6965 422.094 54.946 421.824 54.3187 421.283C53.6913 420.735 53.3779 420.076 53.3779 419.305C53.3779 418.542 53.6913 417.891 54.3187 417.35C54.946 416.802 55.6965 416.528 56.5693 416.528C57.4511 416.528 58.2016 416.802 58.82 417.35C59.4474 417.891 59.7615 418.542 59.7615 419.305C59.7615 420.076 59.4474 420.735 58.82 421.283C58.2016 421.824 57.4511 422.094 56.5693 422.094ZM84.9794 429.816L79.2695 429.96C79.2105 429.579 79.0494 429.241 78.7868 428.947C78.5235 428.644 78.1803 428.41 77.7566 428.243C77.3411 428.068 76.8577 427.982 76.3071 427.982C75.5865 427.982 74.9718 428.117 74.463 428.386C73.9632 428.656 73.717 429.022 73.7259 429.483C73.717 429.841 73.8699 430.151 74.1832 430.413C74.5055 430.675 75.0777 430.885 75.8998 431.044L79.6641 431.712C81.6134 432.062 83.0637 432.641 84.0126 433.452C84.9704 434.262 85.4538 435.335 85.462 436.67C85.4538 437.925 85.0555 439.018 84.267 439.947C83.4874 440.877 82.4191 441.6 81.0629 442.116C79.7067 442.625 78.155 442.879 76.4086 442.879C73.6193 442.879 71.42 442.343 69.8094 441.27C68.207 440.19 67.2916 438.744 67.0626 436.932L73.2045 436.789C73.3395 437.457 73.6916 437.965 74.2593 438.314C74.8278 438.664 75.5521 438.839 76.4339 438.839C77.2307 438.839 77.8797 438.7 78.3795 438.421C78.8801 438.144 79.1345 437.774 79.1427 437.313C79.1345 436.9 78.939 436.571 78.5578 436.324C78.1759 436.07 77.5783 435.871 76.7644 435.728L73.3567 435.121C71.3984 434.786 69.9407 434.171 68.9828 433.273C68.0242 432.367 67.5498 431.215 67.558 429.816C67.5498 428.593 67.8974 427.548 68.6009 426.683C69.3044 425.809 70.3048 425.141 71.6021 424.68C72.8994 424.219 74.4294 423.988 76.1922 423.988C78.8375 423.988 80.9226 424.509 82.4489 425.55C83.9745 426.583 84.8183 428.005 84.9794 429.816ZM103.846 424.227V428.518H91.5241V424.227H103.846ZM94.1052 419.841H100.323V436.777C100.323 437.134 100.383 437.424 100.501 437.647C100.628 437.861 100.81 438.017 101.048 438.112C101.286 438.199 101.569 438.243 101.9 438.243C102.137 438.243 102.387 438.223 102.65 438.183C102.922 438.136 103.125 438.096 103.26 438.064L104.202 442.271C103.905 442.351 103.486 442.45 102.942 442.569C102.408 442.689 101.768 442.764 101.022 442.796C99.5645 442.859 98.3142 442.701 97.2713 442.319C96.2373 441.929 95.4443 441.326 94.8938 440.507C94.3507 439.689 94.0881 438.66 94.1052 437.421V419.841ZM120.236 442.879C118.192 442.879 116.429 442.502 114.946 441.747C113.471 440.984 112.335 439.9 111.538 438.493C110.749 437.079 110.355 435.398 110.355 433.452C110.355 431.561 110.754 429.908 111.551 428.493C112.347 427.071 113.471 425.967 114.92 425.181C116.37 424.386 118.078 423.988 120.045 423.988C121.435 423.988 122.706 424.191 123.86 424.597C125.012 425.002 126.008 425.602 126.847 426.396C127.687 427.191 128.339 428.172 128.806 429.34C129.272 430.5 129.505 431.831 129.505 433.333V434.786H112.529V431.402H123.719C123.711 430.782 123.554 430.23 123.249 429.745C122.944 429.26 122.524 428.883 121.99 428.613C121.465 428.335 120.858 428.196 120.172 428.196C119.477 428.196 118.854 428.343 118.303 428.637C117.751 428.923 117.315 429.316 116.993 429.816C116.67 430.309 116.501 430.869 116.484 431.497V434.942C116.484 435.688 116.641 436.344 116.955 436.908C117.269 437.464 117.713 437.897 118.29 438.207C118.867 438.517 119.553 438.672 120.35 438.672C120.901 438.672 121.401 438.6 121.851 438.457C122.3 438.314 122.685 438.104 123.008 437.826C123.33 437.547 123.571 437.206 123.732 436.801L129.442 436.956C129.205 438.156 128.683 439.2 127.878 440.09C127.081 440.972 126.034 441.66 124.737 442.152C123.44 442.637 121.939 442.879 120.236 442.879ZM143.196 432.093V442.533H136.978V424.227H142.891V427.588H143.107C143.54 426.468 144.277 425.59 145.32 424.954C146.363 424.311 147.604 423.988 149.045 423.988C150.419 423.988 151.61 424.279 152.619 424.859C153.636 425.431 154.424 426.233 154.984 427.266C155.552 428.291 155.832 429.491 155.823 430.865V442.533H149.605V432.01C149.614 430.992 149.338 430.198 148.778 429.626C148.228 429.054 147.46 428.768 146.477 428.768C145.824 428.768 145.248 428.903 144.748 429.173C144.256 429.435 143.874 429.813 143.603 430.305C143.34 430.798 143.205 431.394 143.196 432.093ZM185.077 442.879C183.026 442.879 181.262 442.486 179.788 441.699C178.321 440.904 177.189 439.8 176.392 438.386C175.604 436.964 175.21 435.315 175.21 433.44C175.21 431.557 175.604 429.908 176.392 428.493C177.189 427.071 178.321 425.967 179.788 425.181C181.262 424.386 183.026 423.988 185.077 423.988C187.129 423.988 188.888 424.386 190.355 425.181C191.829 425.967 192.961 427.071 193.75 428.493C194.546 429.908 194.945 431.557 194.945 433.44C194.945 435.315 194.546 436.964 193.75 438.386C192.961 439.8 191.829 440.904 190.355 441.699C188.888 442.486 187.129 442.879 185.077 442.879ZM185.115 438.482C185.861 438.482 186.493 438.267 187.01 437.838C187.527 437.408 187.922 436.813 188.193 436.05C188.472 435.287 188.613 434.405 188.613 433.404C188.613 432.387 188.472 431.497 188.193 430.734C187.922 429.972 187.527 429.376 187.01 428.947C186.493 428.518 185.861 428.303 185.115 428.303C184.344 428.303 183.691 428.518 183.157 428.947C182.632 429.376 182.229 429.972 181.949 430.734C181.678 431.497 181.542 432.387 181.542 433.404C181.542 434.405 181.678 435.287 181.949 436.05C182.229 436.813 182.632 437.408 183.157 437.838C183.691 438.267 184.344 438.482 185.115 438.482ZM215.029 434.632V424.227H221.234V442.533H215.308V439.125H215.105C214.673 440.245 213.935 441.135 212.893 441.794C211.858 442.446 210.608 442.772 209.141 442.772C207.81 442.772 206.641 442.486 205.632 441.914C204.623 441.341 203.839 440.543 203.279 439.519C202.72 438.485 202.436 437.278 202.427 435.895V424.227H208.645V434.751C208.654 435.744 208.934 436.527 209.484 437.099C210.036 437.671 210.786 437.957 211.735 437.957C212.354 437.957 212.909 437.83 213.401 437.575C213.902 437.313 214.295 436.936 214.584 436.443C214.88 435.943 215.029 435.339 215.029 434.632ZM240.514 424.227V428.518H228.192V424.227H240.514ZM230.773 419.841H236.992V436.777C236.992 437.134 237.051 437.424 237.169 437.647C237.297 437.861 237.479 438.017 237.716 438.112C237.953 438.199 238.238 438.243 238.568 438.243C238.805 438.243 239.056 438.223 239.319 438.183C239.59 438.136 239.793 438.096 239.929 438.064L240.87 442.271C240.573 442.351 240.153 442.45 239.611 442.569C239.077 442.689 238.437 442.764 237.691 442.796C236.233 442.859 234.982 442.701 233.94 442.319C232.905 441.929 232.113 441.326 231.562 440.507C231.019 439.689 230.757 438.66 230.773 437.421V419.841ZM269.091 442.879C267.039 442.879 265.277 442.486 263.801 441.699C262.334 440.904 261.203 439.8 260.406 438.386C259.617 436.964 259.223 435.315 259.223 433.44C259.223 431.557 259.617 429.908 260.406 428.493C261.203 427.071 262.334 425.967 263.801 425.181C265.277 424.386 267.039 423.988 269.091 423.988C271.142 423.988 272.901 424.386 274.368 425.181C275.843 425.967 276.975 427.071 277.763 428.493C278.56 429.908 278.958 431.557 278.958 433.44C278.958 435.315 278.56 436.964 277.763 438.386C276.975 439.8 275.843 440.904 274.368 441.699C272.901 442.486 271.142 442.879 269.091 442.879ZM269.129 438.482C269.875 438.482 270.507 438.267 271.024 437.838C271.541 437.408 271.935 436.813 272.206 436.05C272.486 435.287 272.626 434.405 272.626 433.404C272.626 432.387 272.486 431.497 272.206 430.734C271.935 429.972 271.541 429.376 271.024 428.947C270.507 428.518 269.875 428.303 269.129 428.303C268.357 428.303 267.705 428.518 267.171 428.947C266.645 429.376 266.243 429.972 265.963 430.734C265.691 431.497 265.556 432.387 265.556 433.404C265.556 434.405 265.691 435.287 265.963 436.05C266.243 436.813 266.645 437.408 267.171 437.838C267.705 438.267 268.357 438.482 269.129 438.482ZM297.542 424.227V428.518H284.978V424.227H297.542ZM287.598 442.533V423.298C287.598 421.883 287.882 420.711 288.45 419.781C289.018 418.844 289.807 418.145 290.815 417.684C291.824 417.215 292.99 416.981 294.312 416.981C295.177 416.981 295.99 417.044 296.753 417.171C297.525 417.291 298.097 417.398 298.47 417.494L297.479 421.76C297.249 421.688 296.97 421.629 296.639 421.581C296.317 421.534 296.012 421.51 295.723 421.51C294.994 421.51 294.494 421.661 294.223 421.963C293.951 422.264 293.816 422.677 293.816 423.202V442.533H287.598ZM327.845 424.227V428.518H315.524V424.227H327.845ZM318.105 419.841H324.323V436.777C324.323 437.134 324.382 437.424 324.501 437.647C324.628 437.861 324.811 438.017 325.048 438.112C325.285 438.199 325.569 438.243 325.9 438.243C326.137 438.243 326.387 438.223 326.65 438.183C326.921 438.136 327.125 438.096 327.26 438.064L328.201 442.271C327.904 442.351 327.485 442.45 326.943 442.569C326.409 442.689 325.768 442.764 325.022 442.796C323.564 442.859 322.314 442.701 321.271 442.319C320.237 441.929 319.444 441.326 318.893 440.507C318.351 439.689 318.088 438.66 318.105 437.421V419.841ZM341.952 432.093V442.533H335.734V418.125H341.749V427.588H341.965C342.406 426.459 343.126 425.578 344.127 424.942C345.135 424.307 346.369 423.988 347.827 423.988C349.2 423.988 350.396 424.274 351.413 424.847C352.431 425.411 353.219 426.209 353.779 427.243C354.346 428.275 354.626 429.483 354.618 430.865V442.533H348.399V432.01C348.408 430.992 348.137 430.198 347.586 429.626C347.035 429.054 346.259 428.768 345.259 428.768C344.606 428.768 344.029 428.903 343.529 429.173C343.038 429.435 342.652 429.813 342.372 430.305C342.101 430.798 341.961 431.394 341.952 432.093ZM371.926 442.879C369.883 442.879 368.12 442.502 366.637 441.747C365.161 440.984 364.026 439.9 363.228 438.493C362.44 437.079 362.046 435.398 362.046 433.452C362.046 431.561 362.444 429.908 363.241 428.493C364.038 427.071 365.161 425.967 366.611 425.181C368.061 424.386 369.769 423.988 371.736 423.988C373.126 423.988 374.397 424.191 375.55 424.597C376.703 425.002 377.699 425.602 378.539 426.396C379.378 427.191 380.031 428.172 380.497 429.34C380.963 430.5 381.197 431.831 381.197 433.333V434.786H364.22V431.402H375.411C375.402 430.782 375.245 430.23 374.94 429.745C374.635 429.26 374.215 428.883 373.681 428.613C373.155 428.335 372.55 428.196 371.863 428.196C371.167 428.196 370.544 428.343 369.994 428.637C369.442 428.923 369.006 429.316 368.684 429.816C368.362 430.309 368.192 430.869 368.175 431.497V434.942C368.175 435.688 368.332 436.344 368.646 436.908C368.959 437.464 369.404 437.897 369.98 438.207C370.557 438.517 371.244 438.672 372.041 438.672C372.591 438.672 373.092 438.6 373.541 438.457C373.99 438.314 374.377 438.104 374.698 437.826C375.02 437.547 375.262 437.206 375.423 436.801L381.132 436.956C380.895 438.156 380.374 439.2 379.569 440.09C378.772 440.972 377.725 441.66 376.428 442.152C375.131 442.637 373.631 442.879 371.926 442.879ZM400.659 442.533V418.125H406.877V427.361H407.005C407.259 426.806 407.619 426.269 408.085 425.753C408.56 425.236 409.162 424.815 409.891 424.489C410.629 424.156 411.51 423.988 412.536 423.988C413.892 423.988 415.16 424.323 416.338 424.99C417.525 425.657 418.482 426.686 419.211 428.077C419.941 429.467 420.305 431.239 420.305 433.392C420.305 435.466 419.954 437.202 419.25 438.6C418.555 439.999 417.613 441.048 416.427 441.747C415.249 442.446 413.939 442.796 412.497 442.796C411.514 442.796 410.662 442.645 409.942 442.343C409.221 442.041 408.615 441.643 408.124 441.151C407.64 440.658 407.267 440.13 407.005 439.566H406.814V442.533H400.659ZM406.75 433.38C406.75 434.365 406.89 435.223 407.169 435.955C407.458 436.685 407.869 437.254 408.403 437.659C408.946 438.056 409.594 438.255 410.349 438.255C411.112 438.255 411.76 438.056 412.294 437.659C412.829 437.254 413.231 436.685 413.502 435.955C413.782 435.223 413.922 434.365 413.922 433.38C413.922 432.395 413.782 431.541 413.502 430.818C413.231 430.095 412.829 429.535 412.294 429.137C411.768 428.74 411.12 428.542 410.349 428.542C409.586 428.542 408.937 428.736 408.403 429.126C407.869 429.515 407.458 430.071 407.169 430.794C406.89 431.517 406.75 432.379 406.75 433.38ZM436.978 442.879C434.927 442.879 433.163 442.486 431.688 441.699C430.222 440.904 429.09 439.8 428.293 438.386C427.505 436.964 427.111 435.315 427.111 433.44C427.111 431.557 427.505 429.908 428.293 428.493C429.09 427.071 430.222 425.967 431.688 425.181C433.163 424.386 434.927 423.988 436.978 423.988C439.03 423.988 440.789 424.386 442.255 425.181C443.73 425.967 444.862 427.071 445.65 428.493C446.447 429.908 446.846 431.557 446.846 433.44C446.846 435.315 446.447 436.964 445.65 438.386C444.862 439.8 443.73 440.904 442.255 441.699C440.789 442.486 439.03 442.879 436.978 442.879ZM437.016 438.482C437.762 438.482 438.394 438.267 438.911 437.838C439.428 437.408 439.822 436.813 440.094 436.05C440.373 435.287 440.514 434.405 440.514 433.404C440.514 432.387 440.373 431.497 440.094 430.734C439.822 429.972 439.428 429.376 438.911 428.947C438.394 428.518 437.762 428.303 437.016 428.303C436.245 428.303 435.592 428.518 435.058 428.947C434.532 429.376 434.13 429.972 433.85 430.734C433.579 431.497 433.443 432.387 433.443 433.404C433.443 434.405 433.579 435.287 433.85 436.05C434.13 436.813 434.532 437.408 435.058 437.838C435.592 438.267 436.245 438.482 437.016 438.482ZM458.918 424.227L462.136 430.258L465.467 424.227H471.736L466.281 433.38L471.94 442.533H465.722L462.136 436.455L458.638 442.533H452.332L458.003 433.38L452.611 424.227H458.918Z" fill="#FFFBFB"/>
<path d="M239.996 120.989L220.311 119.649C220.195 117.738 219.79 115.991 219.094 114.411C218.399 112.83 217.424 111.453 216.169 110.28C214.915 109.106 213.39 108.174 211.597 107.483C209.832 106.77 207.847 106.338 205.642 106.188C201.732 105.922 198.289 106.59 195.316 108.193C192.368 109.798 190.002 112.246 188.217 115.537C186.458 118.83 185.391 122.887 185.018 127.708C184.63 132.727 185.065 136.986 186.324 140.484C187.612 143.959 189.579 146.653 192.229 148.564C194.905 150.452 198.16 151.527 201.991 151.788C204.144 151.934 206.119 151.809 207.918 151.412C209.742 151.016 211.362 150.373 212.777 149.48C214.22 148.564 215.429 147.422 216.407 146.054C217.411 144.663 218.154 143.07 218.636 141.272L238.312 142.723C237.712 146.045 236.42 149.271 234.437 152.4C232.479 155.531 229.9 158.336 226.701 160.813C223.503 163.267 219.69 165.133 215.264 166.415C210.864 167.699 205.895 168.152 200.358 167.775C193.061 167.279 186.642 165.333 181.1 161.939C175.587 158.522 171.387 153.81 168.502 147.802C165.616 141.795 164.495 134.646 165.137 126.356C165.781 118.041 168.02 111.109 171.853 105.558C175.687 100.008 180.607 95.9282 186.613 93.3201C192.62 90.7121 199.206 89.6514 206.371 90.1388C211.252 90.4709 215.717 91.4176 219.765 92.9789C223.815 94.5158 227.32 96.6092 230.281 99.2585C233.244 101.884 235.573 105.022 237.269 108.674C238.965 112.325 239.874 116.43 239.996 120.989ZM254.066 170.391L259.919 94.8213L279.407 96.147L277.058 126.479L308.828 128.64L311.178 98.309L330.626 99.6319L324.772 175.202L305.325 173.878L307.677 143.51L275.906 141.349L273.554 171.716L254.066 170.391Z" fill="#FFFEFE"/>
</svg>
