<svg width="50" height="50" viewBox="0 0 50 50" fill="none" xmlns="http://www.w3.org/2000/svg">
<g clip-path="url(#clip0_115_21)">
<path fill-rule="evenodd" clip-rule="evenodd" d="M41.5 24.5002C41.5 33.3367 34.3366 40.5002 25.5 40.5002C16.6634 40.5002 9.5 33.3367 9.5 24.5002C9.5 20.9569 10.6505 17.6843 12.6 15.0329L15.0008 20.7758L25.5 7.00017L8.32039 4.79541L11.2867 11.8911C8.30987 15.2446 6.5 19.6623 6.5 24.5002C6.5 34.9936 15.0066 43.5002 25.5 43.5002C35.9934 43.5002 44.5 34.9936 44.5 24.5002H41.5ZM24.6193 32V17.4545H22.858L19.2216 19.8693V21.6591L22.7727 19.3011H22.858V32H24.6193ZM31.0966 31.7017C31.7642 32.0331 32.5147 32.1989 33.348 32.1989C34.2713 32.1989 35.0952 31.9905 35.8196 31.5739C36.544 31.1525 37.1122 30.5795 37.5241 29.8551C37.9408 29.1259 38.1491 28.2973 38.1491 27.3693C38.1491 26.4271 37.9479 25.589 37.5455 24.8551C37.1477 24.1212 36.5985 23.5436 35.8977 23.1222C35.2017 22.696 34.4086 22.483 33.5185 22.483C33.0308 22.483 32.562 22.5611 32.1122 22.7173C31.6624 22.8736 31.2884 23.0701 30.9901 23.3068H30.9048L31.4162 19.017H37.4957V17.4545H29.9389L29.0582 24.6136L30.706 24.8125C31.009 24.5947 31.3949 24.4171 31.8636 24.2798C32.3324 24.1378 32.7893 24.0691 33.2344 24.0739C33.8546 24.0786 34.4062 24.2254 34.8892 24.5142C35.3722 24.803 35.7509 25.1984 36.0256 25.7003C36.3049 26.1974 36.4446 26.7633 36.4446 27.3977C36.4446 28.018 36.3097 28.5743 36.0398 29.0668C35.7746 29.5545 35.4077 29.938 34.9389 30.2173C34.4749 30.4967 33.9446 30.6364 33.348 30.6364C32.6046 30.6364 31.9654 30.4233 31.4304 29.9972C30.9001 29.5663 30.6018 29.0218 30.5355 28.3636H28.831C28.8688 29.1023 29.089 29.7604 29.4915 30.3381C29.8939 30.9157 30.429 31.3703 31.0966 31.7017Z" fill="white"/>
</g>
<defs>
<clipPath id="clip0_115_21">
<rect width="50" height="50" fill="white"/>
</clipPath>
</defs>
</svg>
